<svg width="69" height="69" viewBox="0 0 69 69" fill="none" xmlns="http://www.w3.org/2000/svg">
<g filter="url(#filter0_d)">
<path d="M66.9952 30.4977C66.9952 13.6542 53.3411 0 36.4977 0C19.6542 0 6 13.6542 6 30.4977C6 45.72 17.1526 58.3368 31.7323 60.6249V39.3135H23.9888V30.4977H31.7323V23.7786C31.7323 16.1352 36.2855 11.9131 43.2517 11.9131C46.5884 11.9131 50.0786 12.5088 50.0786 12.5088V20.0141H46.2331C42.4445 20.0141 41.2628 22.365 41.2628 24.7768V30.4977H49.7212L48.3691 39.3135H41.2628V60.6249C55.8428 58.3368 66.9952 45.72 66.9952 30.4977Z" fill="white"/>
</g>
<defs>
<filter id="filter0_d" x="0" y="0" width="69" height="69" filterUnits="userSpaceOnUse" color-interpolation-filters="sRGB">
<feFlood flood-opacity="0" result="BackgroundImageFix"/>
<feColorMatrix in="SourceAlpha" type="matrix" values="0 0 0 0 0 0 0 0 0 0 0 0 0 0 0 0 0 0 127 0"/>
<feOffset dx="-2" dy="4"/>
<feGaussianBlur stdDeviation="2"/>
<feColorMatrix type="matrix" values="0 0 0 0 1 0 0 0 0 0 0 0 0 0 0 0 0 0 1 0"/>
<feBlend mode="normal" in2="BackgroundImageFix" result="effect1_dropShadow"/>
<feBlend mode="normal" in="SourceGraphic" in2="effect1_dropShadow" result="shape"/>
</filter>
</defs>
</svg>
