<svg width="69" height="69" viewBox="0 0 69 69" fill="none" xmlns="http://www.w3.org/2000/svg">
<g filter="url(#filter0_d)">
<path d="M36.5 0C28.2142 0 27.1797 0.038125 23.9264 0.183C20.6781 0.3355 18.4669 0.846375 16.5225 1.60125C14.5171 2.379 12.8142 3.42362 11.1189 5.11892C9.42362 6.81421 8.37646 8.51458 7.60125 10.5225C6.84638 12.4669 6.33296 14.6781 6.183 17.9264C6.0305 21.1797 6 22.2142 6 30.5C6 38.7858 6.03812 39.8203 6.183 43.0736C6.3355 46.3193 6.84638 48.5331 7.60125 50.4775C8.379 52.4803 9.42362 54.1858 11.1189 55.8811C12.8142 57.5738 14.5146 58.6235 16.5225 59.3988C18.4694 60.1511 20.6807 60.667 23.9264 60.817C27.1797 60.9695 28.2142 61 36.5 61C44.7858 61 45.8203 60.9619 49.0736 60.817C52.3193 60.6645 54.5331 60.1511 56.4775 59.3988C58.4803 58.621 60.1858 57.5738 61.8811 55.8811C63.5738 54.1858 64.6235 52.488 65.3988 50.4775C66.1511 48.5331 66.667 46.3193 66.817 43.0736C66.9695 39.8203 67 38.7858 67 30.5C67 22.2142 66.9619 21.1797 66.817 17.9264C66.6645 14.6807 66.1511 12.4643 65.3988 10.5225C64.621 8.51713 63.5738 6.81421 61.8811 5.11892C60.1858 3.42362 58.488 2.37646 56.4775 1.60125C54.5331 0.846375 52.3193 0.332958 49.0736 0.183C45.8203 0.0305 44.7858 0 36.5 0ZM36.5 5.49C44.641 5.49 45.6119 5.53067 48.8271 5.67046C51.8008 5.81025 53.4148 6.30333 54.4874 6.72525C55.9158 7.27679 56.9274 7.93763 58 9.00258C59.0649 10.0701 59.7257 11.0842 60.2773 12.5126C60.6941 13.5852 61.1923 15.1992 61.327 18.1729C61.4719 21.3907 61.5049 22.3565 61.5049 30.5C61.5049 38.6435 61.4668 39.6119 61.3168 42.8271C61.1618 45.8008 60.6662 47.4148 60.2468 48.4874C59.6775 49.9158 59.0293 50.9274 57.9618 52C56.8969 53.0649 55.8675 53.7257 54.4543 54.2773C53.3868 54.6941 51.7475 55.1923 48.7737 55.327C45.5356 55.4719 44.5825 55.5049 36.4238 55.5049C28.2625 55.5049 27.3093 55.4668 24.0738 55.3168C21.0975 55.1618 19.4581 54.6662 18.3906 54.2468C16.9444 53.6775 15.9506 53.0293 14.8857 51.9618C13.8156 50.8969 13.1319 49.8675 12.5982 48.4543C12.1788 47.3868 11.6857 45.7475 11.5307 42.7737C11.4163 39.5712 11.3756 38.5825 11.3756 30.4619C11.3756 22.3387 11.4163 21.3475 11.5307 18.1068C11.6857 15.1331 12.1788 13.4963 12.5982 12.4288C13.1319 10.98 13.8156 9.98875 14.8857 8.91871C15.9506 7.85375 16.9444 7.1675 18.3906 6.63629C19.4581 6.21438 21.0619 5.71875 24.0357 5.56625C27.2763 5.45188 28.2294 5.41375 36.3856 5.41375L36.5 5.49ZM36.5 14.8383C27.8456 14.8383 20.8383 21.8533 20.8383 30.5C20.8383 39.1544 27.8533 46.1618 36.5 46.1618C45.1544 46.1618 52.1618 39.1468 52.1618 30.5C52.1618 21.8456 45.1468 14.8383 36.5 14.8383ZM36.5 40.6667C30.8829 40.6667 26.3333 36.1171 26.3333 30.5C26.3333 24.8829 30.8829 20.3333 36.5 20.3333C42.1171 20.3333 46.6667 24.8829 46.6667 30.5C46.6667 36.1171 42.1171 40.6667 36.5 40.6667ZM56.4419 14.2206C56.4419 16.2412 54.8 17.8806 52.7819 17.8806C50.7613 17.8806 49.1219 16.2387 49.1219 14.2206C49.1219 12.2025 50.7638 10.5632 52.7819 10.5632C54.7975 10.5606 56.4419 12.2025 56.4419 14.2206Z" fill="white"/>
</g>
<defs>
<filter id="filter0_d" x="0" y="0" width="69" height="69" filterUnits="userSpaceOnUse" color-interpolation-filters="sRGB">
<feFlood flood-opacity="0" result="BackgroundImageFix"/>
<feColorMatrix in="SourceAlpha" type="matrix" values="0 0 0 0 0 0 0 0 0 0 0 0 0 0 0 0 0 0 127 0"/>
<feOffset dx="-2" dy="4"/>
<feGaussianBlur stdDeviation="2"/>
<feColorMatrix type="matrix" values="0 0 0 0 0.396078 0 0 0 0 0.552941 0 0 0 0 0.627451 0 0 0 1 0"/>
<feBlend mode="normal" in2="BackgroundImageFix" result="effect1_dropShadow"/>
<feBlend mode="normal" in="SourceGraphic" in2="effect1_dropShadow" result="shape"/>
</filter>
</defs>
</svg>
