<svg width="70" height="70" viewBox="0 0 70 70" fill="none" xmlns="http://www.w3.org/2000/svg">
<g clip-path="url(#clip0)" filter="url(#filter0_d)">
<path d="M51.136 37.1535C50.3688 36.7686 46.5945 34.9137 45.8918 34.6554C45.1866 34.3997 44.6751 34.2731 44.161 35.0429C43.6521 35.8102 42.1796 37.5384 41.7327 38.0499C41.2858 38.564 40.8363 38.626 40.069 38.2437C39.3018 37.8562 36.8269 37.0476 33.8948 34.4333C31.6138 32.3976 30.0715 29.884 29.6246 29.1142C29.1777 28.3469 29.5781 27.931 29.9604 27.5487C30.3066 27.2051 30.7303 26.6522 31.1126 26.2053C31.4975 25.7558 31.6241 25.4355 31.8824 24.9214C32.1382 24.4099 32.0116 23.963 31.8178 23.5781C31.6241 23.1932 30.0896 19.4137 29.4515 17.8767C28.8263 16.3809 28.1934 16.585 27.7233 16.5592C27.2763 16.5385 26.7648 16.5333 26.2508 16.5333C25.7393 16.5333 24.9074 16.7245 24.2048 17.4943C23.5021 18.2616 21.5181 20.119 21.5181 23.8984C21.5181 27.6752 24.2693 31.3255 24.6517 31.8396C25.0366 32.3511 30.0663 40.1062 37.7673 43.431C39.5988 44.2215 41.0274 44.6942 42.1434 45.0456C43.9828 45.632 45.6568 45.5493 46.9768 45.3504C48.4519 45.1308 51.5183 43.493 52.159 41.7002C52.7997 39.9073 52.7997 38.3702 52.6059 38.0499C52.4148 37.7296 51.9033 37.5384 51.1334 37.1535H51.136ZM37.1292 56.2779H37.1188C32.5457 56.2783 28.0567 55.0487 24.1221 52.7181L23.1895 52.1652L13.5253 54.7021L16.1034 45.2781L15.4963 44.3119C12.94 40.2413 11.5876 35.5304 11.5955 30.7236C11.5981 16.6444 23.0552 5.18992 37.1395 5.18992C43.9595 5.18992 50.3713 7.85075 55.1918 12.6764C57.5703 15.0443 59.4554 17.8605 60.7383 20.9618C62.0211 24.0631 62.6761 27.3881 62.6654 30.7442C62.6577 44.8234 51.2032 56.2779 37.1292 56.2779ZM58.8628 9.01066C56.0164 6.14555 52.6298 3.8738 48.8991 2.32707C45.1684 0.78033 41.1678 -0.0106371 37.1292 -9.52859e-07C20.1954 -9.52859e-07 6.41335 13.7821 6.4056 30.721C6.4056 36.1357 7.81868 41.4212 10.5079 46.0789L6.14726 62L22.4352 57.7272C26.9395 60.1811 31.9869 61.4672 37.1163 61.4678H37.1292C54.0603 61.4678 67.845 47.6857 67.8528 30.7442C67.8652 26.7072 67.0771 22.7078 65.534 18.9773C63.9909 15.2467 61.7234 11.8592 58.8628 9.01066Z" fill="white"/>
</g>
<defs>
<filter id="filter0_d" x="0" y="0" width="70" height="70" filterUnits="userSpaceOnUse" color-interpolation-filters="sRGB">
<feFlood flood-opacity="0" result="BackgroundImageFix"/>
<feColorMatrix in="SourceAlpha" type="matrix" values="0 0 0 0 0 0 0 0 0 0 0 0 0 0 0 0 0 0 127 0"/>
<feOffset dx="-2" dy="4"/>
<feGaussianBlur stdDeviation="2"/>
<feColorMatrix type="matrix" values="0 0 0 0 1 0 0 0 0 0 0 0 0 0 0 0 0 0 1 0"/>
<feBlend mode="normal" in2="BackgroundImageFix" result="effect1_dropShadow"/>
<feBlend mode="normal" in="SourceGraphic" in2="effect1_dropShadow" result="shape"/>
</filter>
<clipPath id="clip0">
<rect width="62" height="62" fill="white" transform="translate(6)"/>
</clipPath>
</defs>
</svg>
